<svg width="160" height="160" viewBox="0 0 160 160" fill="none" xmlns="http://www.w3.org/2000/svg">
  <rect width="160" height="160" rx="28" fill="url(#paint0_linear_1_2)"/>
  <path d="M92.2 102.6C87.8 105 82.8 106.2 77.2 106.2C69.4 106.2 62.9 103.7 57.7 98.7C52.6 93.6 50 87.3 50 79.6C50 71.8 52.6 65.4 57.8 60.4C63.1 55.3 69.8 52.8 78 52.8C83.3 52.8 88.1 53.8 92.3 55.9C96.5 58 99.8 60.9 102.1 64.6L90.6 73.2C87.9 69.3 83.9 67.4 78.7 67.4C74.7 67.4 71.3 68.6 68.7 71.1C66.1 73.6 64.8 76.4 64.8 79.6C64.8 83.1 66.1 86 68.7 88.4C71.3 90.7 74.7 91.9 78.9 91.9C83.9 91.9 88 90 91.2 86.1L102.6 94.5C100 98 96.5 100.7 92.2 102.6Z" fill="white"/>
  <defs>
    <linearGradient id="paint0_linear_1_2" x1="18" y1="18" x2="142" y2="146" gradientUnits="userSpaceOnUse">
      <stop stop-color="#286CCD"/>
      <stop offset="1" stop-color="#00252E"/>
    </linearGradient>
  </defs>
</svg>
