<svg width="64" height="64" viewBox="0 0 64 64" fill="none" xmlns="http://www.w3.org/2000/svg">
  <rect width="64" height="64" rx="14" fill="#286CCD"/>
  <path d="M38.2 42.1C36.1 43.2 33.8 43.8 31.2 43.8C27.4 43.8 24.2 42.6 21.7 40.1C19.2 37.7 18 34.6 18 30.9C18 27.1 19.3 24 21.8 21.5C24.4 19.1 27.6 17.8 31.6 17.8C34.2 17.8 36.5 18.3 38.5 19.3C40.6 20.3 42.2 21.7 43.3 23.5L37.7 27.7C36.4 25.8 34.5 24.9 32 24.9C30 24.9 28.4 25.5 27.1 26.7C25.9 27.9 25.3 29.3 25.3 30.9C25.3 32.6 25.9 34 27.2 35.2C28.4 36.3 30.1 36.9 32.1 36.9C34.5 36.9 36.5 36 38 34.1L43.6 38.2C42.3 39.9 40.5 41.2 38.2 42.1Z" fill="white"/>
</svg>
